<svg width="258" height="168" viewBox="0 0 258 168" fill="none" xmlns="http://www.w3.org/2000/svg">
<path d="M154.6 45.1945L85.8 6L17 45.1945V123.518L85.8 162.712L154.6 123.518V45.1945ZM146 50.018V118.695L85.8 153L25.6 118.695V50.018L85.8 15.7125L146 50.018Z" fill="white"/>
<rect x="146" y="50" width="9" height="69" fill="black"/>
<path d="M151.839 50.8634L144.456 50.5364L155.707 44.5659L151.839 50.8634Z" fill="black"/>
<path d="M151.832 118.398L155.747 124.666L144.451 118.781L151.832 118.398Z" fill="black"/>
<ellipse cx="154" cy="49" rx="2" ry="3" fill="black"/>
<ellipse cx="154" cy="120" rx="2" ry="3" fill="black"/>
<path d="M135.193 56.213L86.1551 28.2766L37.117 56.213V112.039L86.1551 139.975L135.193 112.039V56.213ZM129.063 59.651V108.601L86.1551 133.053L43.2467 108.601V59.651L86.1551 35.1993L129.063 59.651Z" fill="white"/>
<rect x="129.063" y="59.6382" width="6.41487" height="49.1806" fill="black"/>
<path d="M133.225 60.2535L127.963 60.0205L135.982 55.7649L133.225 60.2535Z" fill="black"/>
<path d="M133.22 108.39L136.011 112.858L127.96 108.662L133.22 108.39Z" fill="black"/>
<ellipse cx="134.766" cy="58.9254" rx="1.42553" ry="2.13829" fill="black"/>
<ellipse cx="134.766" cy="109.532" rx="1.42553" ry="2.13829" fill="black"/>
<g clip-path="url(#clip0_1_67)">
<path d="M77.6549 73.5286C78.1464 73.5286 78.5493 73.1134 78.5493 72.6046V69.9239C78.5493 69.4152 78.1477 69 77.6549 69C77.1621 69 76.7605 69.4152 76.7605 69.9239V72.6046C76.7605 73.1134 77.1621 73.5286 77.6549 73.5286Z" fill="white"/>
<path d="M81.8262 73.5286C82.3177 73.5286 82.7206 73.1134 82.7206 72.6046V69.9239C82.7206 69.4152 82.319 69 81.8262 69C81.3334 69 80.9318 69.4152 80.9318 69.9239V72.6046C80.9331 73.1134 81.3347 73.5286 81.8262 73.5286Z" fill="white"/>
<path d="M86 73.5286C86.4915 73.5286 86.8944 73.1134 86.8944 72.6046V69.9239C86.8944 69.4152 86.4928 69 86 69C85.5072 69 85.1056 69.4152 85.1056 69.9239V72.6046C85.1056 73.1134 85.5085 73.5286 86 73.5286Z" fill="white"/>
<path d="M90.1738 73.5286C90.6641 73.5286 91.0669 73.1134 91.0669 72.6046V69.9239C91.0669 69.4152 90.6666 69 90.1738 69C89.681 69 89.2782 69.4152 89.2782 69.9239V72.6046C89.2794 73.1134 89.681 73.5286 90.1738 73.5286Z" fill="white"/>
<path d="M94.3439 69C93.8536 69 93.4495 69.4152 93.4495 69.9239V72.6046C93.4495 73.1134 93.8511 73.5286 94.3439 73.5286C94.8366 73.5286 95.2395 73.1134 95.2395 72.6046V69.9239C95.2395 69.4152 94.8379 69 94.3439 69Z" fill="white"/>
<path d="M77.6549 94.4714C77.1633 94.4714 76.7605 94.8866 76.7605 95.3954V98.0761C76.7605 98.5849 77.1621 99 77.6549 99C78.1477 99 78.5493 98.5849 78.5493 98.0761V95.3954C78.548 94.8866 78.1464 94.4714 77.6549 94.4714Z" fill="white"/>
<path d="M81.8262 94.4714C81.3347 94.4714 80.9318 94.8866 80.9318 95.3954V98.0761C80.9318 98.5849 81.3334 99 81.8262 99C82.319 99 82.7206 98.5849 82.7206 98.0761V95.3954C82.7206 94.8866 82.319 94.4714 81.8262 94.4714Z" fill="white"/>
<path d="M86 94.4714C85.5085 94.4714 85.1056 94.8866 85.1056 95.3954V98.0761C85.1056 98.5849 85.5072 99 86 99C86.4928 99 86.8944 98.5849 86.8944 98.0761V95.3954C86.8944 94.8866 86.4915 94.4714 86 94.4714Z" fill="white"/>
<path d="M90.1738 94.4714C89.681 94.4714 89.2782 94.8866 89.2782 95.3954V98.0761C89.2782 98.5849 89.6798 99 90.1738 99C90.6653 99 91.0669 98.5849 91.0669 98.0761V95.3954C91.0669 94.8866 90.6653 94.4714 90.1738 94.4714Z" fill="white"/>
<path d="M94.3439 94.4714C93.8536 94.4714 93.4495 94.8866 93.4495 95.3954V98.0761C93.4495 98.5849 93.8511 99 94.3439 99C94.8366 99 95.2395 98.5849 95.2395 98.0761V95.3954C95.2395 94.8866 94.8379 94.4714 94.3439 94.4714Z" fill="white"/>
<path d="M74.6046 91.452H71.9239C71.4152 91.452 71 91.8536 71 92.3476C71 92.8391 71.4152 93.242 71.9239 93.242H74.6046C75.1122 93.242 75.5286 92.8404 75.5286 92.3476C75.5286 91.8536 75.1122 91.452 74.6046 91.452Z" fill="white"/>
<path d="M74.6046 87.2794H71.9239C71.4152 87.2794 71 87.681 71 88.175C71 88.6666 71.4152 89.0694 71.9239 89.0694H74.6046C75.1122 89.0694 75.5286 88.6678 75.5286 88.175C75.5286 87.681 75.1122 87.2794 74.6046 87.2794Z" fill="white"/>
<path d="M74.6046 83.1056H71.9239C71.4152 83.1056 71 83.5072 71 84C71 84.4928 71.4152 84.8956 71.9239 84.8956H74.6046C75.1122 84.8956 75.5286 84.494 75.5286 84C75.5286 83.5072 75.1122 83.1056 74.6046 83.1056Z" fill="white"/>
<path d="M74.6046 78.9331H71.9239C71.4152 78.9331 71 79.3347 71 79.8275C71 80.3202 71.4152 80.7218 71.9239 80.7218H74.6046C75.1122 80.7218 75.5286 80.3202 75.5286 79.8275C75.5286 79.3347 75.1122 78.9331 74.6046 78.9331Z" fill="white"/>
<path d="M74.6046 74.7605H71.9239C71.4152 74.7605 71 75.1621 71 75.6549C71 76.1477 71.4152 76.5493 71.9239 76.5493H74.6046C75.1122 76.5493 75.5286 76.1477 75.5286 75.6549C75.5286 75.1621 75.1122 74.7605 74.6046 74.7605Z" fill="white"/>
<path d="M100.076 91.452H97.3954C96.8878 91.452 96.4714 91.8536 96.4714 92.3476C96.4714 92.8391 96.8878 93.242 97.3954 93.242H100.076C100.585 93.242 101 92.8404 101 92.3476C101 91.8536 100.585 91.452 100.076 91.452Z" fill="white"/>
<path d="M100.076 87.2794H97.3954C96.8878 87.2794 96.4714 87.681 96.4714 88.175C96.4714 88.6666 96.8878 89.0694 97.3954 89.0694H100.076C100.585 89.0694 101 88.6678 101 88.175C101 87.681 100.585 87.2794 100.076 87.2794Z" fill="white"/>
<path d="M100.076 83.1056H97.3954C96.8878 83.1056 96.4714 83.5072 96.4714 84C96.4714 84.4928 96.8878 84.8956 97.3954 84.8956H100.076C100.585 84.8956 101 84.494 101 84C101 83.5072 100.585 83.1056 100.076 83.1056Z" fill="white"/>
<path d="M100.076 78.9331H97.3954C96.8878 78.9331 96.4714 79.3347 96.4714 79.8275C96.4714 80.3202 96.8878 80.7218 97.3954 80.7218H100.076C100.585 80.7218 101 80.3202 101 79.8275C101 79.3347 100.585 78.9331 100.076 78.9331Z" fill="white"/>
<path d="M97.3954 76.548H100.076C100.585 76.548 101 76.1464 101 75.6537C101 75.1609 100.585 74.7593 100.076 74.7593H97.3954C96.8878 74.7593 96.4714 75.1609 96.4714 75.6537C96.4714 76.1464 96.8878 76.548 97.3954 76.548Z" fill="white"/>
<path d="M92.7756 74.7605H79.2244C77.8692 74.7605 76.7605 75.8692 76.7605 77.2244V90.7756C76.7605 92.1307 77.8692 93.2395 79.2244 93.2395H92.7756C94.1307 93.2395 95.2395 92.1307 95.2395 90.7756V77.2244C95.2395 75.8692 94.1295 74.7605 92.7756 74.7605ZM90.9277 86.4638C90.9277 87.819 89.819 88.9277 88.4638 88.9277H83.5361C82.181 88.9277 81.0723 87.819 81.0723 86.4638V81.5361C81.0723 80.181 82.181 79.0723 83.5361 79.0723H88.4638C89.819 79.0723 90.9277 80.181 90.9277 81.5361V86.4638ZM94.0075 92.0075H91.03L94.0075 89.03V92.0075Z" fill="white"/>
</g>
<path d="M143 99V74H158V79H163V84H158V89H148V99H143ZM148 84H157.8V79H148V84ZM188 84V79H178V74H188V79H193V84H188ZM178 99V94H173V79H178V94H188V99H178ZM188 94V89H193V94H188ZM203 89V84H218V89H203ZM228 99V74H233V99H228ZM248 99V79H243V74H258V79H253V99H248Z" fill="white"/>
<defs>
<clipPath id="clip0_1_67">
<rect width="30" height="30" fill="white" transform="translate(71 69)"/>
</clipPath>
</defs>
</svg>
